<?xml version="1.0" encoding="utf-8"?>
<!-- Generator: Adobe Illustrator 14.0.0, SVG Export Plug-In . SVG Version: 6.00 Build 43363)  -->
<!DOCTYPE svg PUBLIC "-//W3C//DTD SVG 1.1//EN" "http://www.w3.org/Graphics/SVG/1.1/DTD/svg11.dtd">
<svg version="1.1" id="Layer_1" xmlns="http://www.w3.org/2000/svg" xmlns:xlink="http://www.w3.org/1999/xlink" x="0px" y="0px"
	 width="151.827px" height="27.434px" viewBox="0 0 151.827 27.434" enable-background="new 0 0 151.827 27.434"
	 xml:space="preserve">
<g>
	<g>
		<g id="Page-1_1_">
			<g id="Homepage_1_" transform="translate(-81.000000, -43.000000)">
				<g id="logo_1_" transform="translate(78.000000, 41.000000)">
					<g id="Page-1">
						<g>
							<g id="Homepage">
								<g id="logo">
									<path id="Peertechz" fill="#636466" d="M47.652,9.637c1.064,0.907,1.599,2.299,1.599,4.178
										c0,1.878-0.547,3.253-1.643,4.124c-1.095,0.871-2.766,1.308-5.013,1.308h-2.021v4.241h-3.394V8.278h5.37
										C44.886,8.278,46.586,8.731,47.652,9.637L47.652,9.637L47.652,9.637z M45.162,15.622c0.405-0.457,0.608-1.125,0.608-2.002
										c0-0.878-0.266-1.501-0.794-1.872c-0.528-0.37-1.353-0.556-2.469-0.556h-1.935v5.114h2.282
										C43.988,16.307,44.757,16.079,45.162,15.622L45.162,15.622L45.162,15.622z M61.424,21.791
										c-1.318,1.246-2.866,1.871-4.642,1.871c-1.776,0-3.243-0.55-4.403-1.645c-1.16-1.096-1.739-2.563-1.739-4.406
										c0-1.843,0.592-3.308,1.772-4.396c1.182-1.088,2.576-1.632,4.186-1.632s2.977,0.485,4.101,1.458
										c1.122,0.972,1.685,2.307,1.685,4.004v1.74h-8.522c0.103,0.639,0.436,1.159,1,1.564c0.564,0.406,1.203,0.609,1.913,0.609
										c1.146,0,2.087-0.388,2.826-1.154L61.424,21.791L61.424,21.791z M58.293,14.849c-0.449-0.377-0.997-0.565-1.643-0.565
										s-1.234,0.195-1.771,0.586c-0.536,0.393-0.849,0.922-0.936,1.59h5.132C59.004,15.763,58.743,15.226,58.293,14.849
										L58.293,14.849L58.293,14.849z M74.577,21.791c-1.319,1.246-2.866,1.871-4.644,1.871c-1.773,0-3.242-0.55-4.401-1.645
										c-1.16-1.096-1.739-2.563-1.739-4.406c0-1.843,0.591-3.308,1.771-4.396c1.182-1.088,2.576-1.632,4.187-1.632
										c1.609,0,2.975,0.485,4.099,1.458c1.123,0.972,1.687,2.307,1.687,4.004v1.74h-8.523c0.104,0.639,0.437,1.159,1,1.564
										c0.565,0.406,1.203,0.609,1.913,0.609c1.146,0,2.087-0.388,2.827-1.154L74.577,21.791L74.577,21.791z M71.446,14.849
										c-0.448-0.377-0.996-0.565-1.643-0.565c-0.645,0-1.235,0.195-1.771,0.586c-0.536,0.393-0.85,0.922-0.937,1.59h5.132
										C72.156,15.763,71.895,15.226,71.446,14.849L71.446,14.849L71.446,14.849z M83.752,14.653
										c-0.974,0-1.695,0.345-2.176,1.034c-0.479,0.689-0.718,1.6-0.718,2.729v5.07h-3.263V11.781h3.263v1.545
										c0.42-0.479,0.943-0.886,1.574-1.219c0.633-0.334,1.271-0.508,1.926-0.521l0.021,3.067L83.752,14.653L83.752,14.653z"/>
									<path id="Combined-Shape" fill="#636466" d="M90.14,14.132v5.245c0,0.449,0.115,0.801,0.349,1.055
										c0.234,0.254,0.509,0.381,0.826,0.381c0.608,0,1.125-0.272,1.545-0.823l1.218,2.282c-1.015,0.931-2.084,1.396-3.207,1.396
										s-2.069-0.368-2.849-1.108c-0.774-0.739-1.164-1.748-1.164-3.021V14.14h-1.369v-2.35h1.369v-3.51h3.282v3.503h2.826v2.35
										L90.14,14.132L90.14,14.132z M105.665,21.791c-1.317,1.246-2.866,1.871-4.645,1.871c-1.774,0-3.242-0.55-4.401-1.645
										c-1.158-1.096-1.738-2.563-1.738-4.406c0-1.843,0.592-3.308,1.771-4.396c1.185-1.088,2.576-1.632,4.188-1.632
										c1.608,0,2.977,0.485,4.1,1.458c1.122,0.972,1.687,2.307,1.687,4.004v1.74h-8.522c0.104,0.639,0.438,1.159,1,1.564
										c0.563,0.406,1.202,0.609,1.913,0.609c1.146,0,2.087-0.388,2.826-1.154L105.665,21.791z M102.533,14.849
										c-0.447-0.377-0.996-0.565-1.646-0.565c-0.645,0-1.232,0.195-1.771,0.586c-0.534,0.393-0.849,0.922-0.938,1.59h5.134
										C103.244,15.763,102.983,15.226,102.533,14.849z M114.297,20.768c1.086,0,2.063-0.545,2.936-1.633l1.937,2.176
										c-1.508,1.566-3.14,2.352-4.894,2.352s-3.235-0.557-4.444-1.664c-1.211-1.109-1.816-2.563-1.816-4.354
										c0-1.792,0.613-3.25,1.838-4.374c1.228-1.125,2.681-1.687,4.359-1.687c0.842,0,1.69,0.174,2.555,0.521
										c0.863,0.349,1.621,0.863,2.271,1.545l-1.695,2.22c-0.377-0.45-0.836-0.8-1.381-1.045
										c-0.543-0.246-1.082-0.369-1.619-0.369c-0.854,0-1.592,0.278-2.207,0.836c-0.614,0.56-0.924,1.336-0.924,2.329
										c0,0.994,0.31,1.768,0.924,2.314C112.746,20.492,113.467,20.768,114.297,20.768z M124.317,17.177v6.311h-3.263V7.343h3.263
										v5.745c0.983-1.001,2.091-1.501,3.313-1.501c1.227,0,2.258,0.435,3.101,1.306c0.84,0.871,1.263,2.031,1.263,3.481v7.116
										h-3.263v-6.397c0-1.799-0.66-2.698-1.979-2.698c-0.652,0-1.225,0.236-1.707,0.707
										C124.558,15.571,124.317,16.263,124.317,17.177z M134.447,14.479v-2.697h9.438v2.546l-5.674,6.44h6v2.72h-10.178v-2.696
										l5.521-6.313H134.447z"/>
									<g id="Group-2">
										<path id="Rectangle-2" opacity="0.4" fill="#636466" enable-background="new    " d="M11.088,8.564
											c2.71-5.756,7.741-6.116,11.237-0.806l6.1,9.268c3.497,5.313,1.176,9.684-5.181,9.766l-9.354,0.121
											c-6.355,0.082-9.313-4.52-6.604-10.273L11.088,8.564L11.088,8.564z"/>
										<g id="Group_1_" transform="translate(4.318154, 2.174126)">
											<g id="Mask">
												<path id="path-3" fill="#636466" d="M3.298,9.471C2.88,3.123,7.101,0.377,12.726,3.339l10.466,5.514
													c5.625,2.962,5.717,7.932,0.202,11.1l-8.714,5.006C9.166,28.126,4.357,25.548,3.939,19.2L3.298,9.471L3.298,9.471z"/>
											</g>
											<g id="Clipped">
												<g id="path-3_1_">
												</g>
												<defs>
													
														<filter id="Adobe_OpacityMaskFilter" filterUnits="userSpaceOnUse" x="4.575" y="9.252" width="14.749" height="19.444">
														<feColorMatrix  type="matrix" values="1 0 0 0 0  0 1 0 0 0  0 0 1 0 0  0 0 0 1 0"/>
													</filter>
												</defs>
												<mask maskUnits="userSpaceOnUse" x="4.575" y="9.252" width="14.749" height="19.444" id="mask-5_3_">
													<g filter="url(#Adobe_OpacityMaskFilter)">
														<path id="path-4_3_" fill="#FFFFFF" d="M3.298,9.471C2.88,3.123,7.101,0.377,12.726,3.339l10.466,5.514
															c5.625,2.962,5.717,7.932,0.202,11.1l-8.714,5.006C9.166,28.126,4.357,25.548,3.939,19.2L3.298,9.471L3.298,9.471z"/>
													</g>
												</mask>
												<g id="Group" mask="url(#mask-5_3_)">
													<g transform="translate(0.612286, 6.968889)">
														
															<g transform="translate(8.804397, 10.283716) rotate(13.000000) translate(-8.804397, -10.283716) translate(2.304397, 1.283716)">
															<polygon id="Fill-1689" fill="#636466" points="15.268,5.131 12.691,2.205 12.692,5.131 															"/>
															<path id="Fill-1691" fill="#636466" d="M6.979,13.779l5.712,0c0.264-0.004,0.475,0.239,0.475,0.54
																c0,0.301-0.213,0.538-0.476,0.541l-5.71,0.001c-0.263,0.003-0.476-0.243-0.473-0.54
																C6.504,14.021,6.716,13.778,6.979,13.779L6.979,13.779L6.979,13.779z M6.98,11.076l5.711,0
																c0.265,0,0.477,0.241,0.477,0.541s-0.213,0.538-0.476,0.541l-5.711,0c-0.263,0.004-0.477-0.241-0.476-0.539
																C6.504,11.319,6.717,11.075,6.98,11.076L6.98,11.076L6.98,11.076z M6.979,8.374l5.711-0.003
																c0.265,0,0.476,0.243,0.476,0.543c0,0.301-0.213,0.54-0.475,0.542l-5.712,0c-0.262,0-0.476-0.243-0.476-0.541
																C6.505,8.616,6.716,8.374,6.979,8.374L6.979,8.374L6.979,8.374z M6.98,5.672l1.902,0
																C9.147,5.673,9.359,5.915,9.36,6.214c0,0.298-0.213,0.538-0.477,0.54L6.98,6.752C6.717,6.753,6.505,6.51,6.505,6.212
																C6.504,5.914,6.716,5.672,6.98,5.672L6.98,5.672L6.98,5.672z M3.649,18.102c0,0.301,0.213,0.539,0.476,0.542
																l11.423,0.001c0.262-0.001,0.475-0.242,0.476-0.541l0-11.891l-3.807-0.002c-0.263,0.001-0.477-0.241-0.476-0.539
																l0-4.323l-7.615,0c-0.263,0-0.475,0.242-0.476,0.54L3.649,18.102L3.649,18.102z"/>
														</g>
													</g>
												</g>
											</g>
										</g>
									</g>
								</g>
							</g>
						</g>
					</g>
				</g>
			</g>
		</g>
		<g>
			<path fill="#636466" d="M145.034,3.151c0.687,0,1.345,0.17,1.974,0.51s1.123,0.826,1.482,1.461
				c0.356,0.635,0.538,1.299,0.538,1.99c0,0.69-0.176,1.349-0.526,1.975c-0.354,0.626-0.848,1.113-1.479,1.464
				c-0.632,0.35-1.294,0.524-1.989,0.524c-0.694,0-1.356-0.176-1.987-0.524c-0.633-0.351-1.123-0.838-1.479-1.464
				c-0.354-0.626-0.528-1.283-0.528-1.975s0.181-1.355,0.54-1.99c0.358-0.635,0.854-1.121,1.482-1.461
				C143.693,3.321,144.349,3.151,145.034,3.151z M145.04,3.927c-0.55,0-1.075,0.137-1.579,0.409c-0.506,0.271-0.9,0.663-1.191,1.174
				c-0.29,0.51-0.436,1.045-0.436,1.603c0,0.557,0.141,1.086,0.426,1.589c0.283,0.504,0.679,0.896,1.187,1.18
				c0.509,0.282,1.039,0.424,1.598,0.424s1.092-0.142,1.598-0.424c0.508-0.283,0.902-0.676,1.188-1.18
				c0.283-0.503,0.429-1.032,0.429-1.589c0-0.558-0.146-1.093-0.438-1.603c-0.29-0.511-0.688-0.901-1.191-1.174
				C146.119,4.062,145.59,3.927,145.04,3.927z M143.231,9.233V5.028h0.858c0.809,0,1.26,0.005,1.354,0.012
				c0.285,0.023,0.508,0.08,0.665,0.168s0.291,0.223,0.396,0.402c0.105,0.182,0.16,0.383,0.16,0.604
				c0,0.304-0.102,0.563-0.302,0.778c-0.198,0.216-0.479,0.35-0.843,0.399c0.129,0.049,0.229,0.103,0.298,0.158
				c0.068,0.057,0.165,0.165,0.287,0.323c0.031,0.041,0.136,0.212,0.313,0.512l0.502,0.849h-1.063l-0.354-0.683
				c-0.24-0.459-0.438-0.748-0.596-0.866c-0.156-0.119-0.354-0.179-0.596-0.179h-0.224v1.728H143.231z M144.092,6.843h0.351
				c0.497,0,0.807-0.019,0.927-0.057c0.118-0.038,0.214-0.104,0.283-0.199c0.068-0.095,0.104-0.202,0.104-0.323
				c0-0.117-0.033-0.222-0.104-0.313c-0.066-0.092-0.163-0.156-0.288-0.196c-0.125-0.039-0.434-0.061-0.924-0.061h-0.35V6.843
				L144.092,6.843z"/>
		</g>
	</g>
	<g>
		<g id="Page-1_2_">
			<g id="Homepage_2_" transform="translate(-81.000000, -43.000000)">
				<g id="logo_2_" transform="translate(78.000000, 41.000000)">
					<g id="Page-1_3_">
						<g>
							<g id="Homepage_3_">
								<g id="logo_3_">
									<path id="Peertechz_1_" fill="#393939" d="M47.652,8.637c1.064,0.907,1.599,2.299,1.599,4.178
										c0,1.878-0.547,3.253-1.643,4.124c-1.095,0.871-2.766,1.307-5.013,1.307h-2.021v4.242h-3.394V7.278h5.37
										C44.886,7.278,46.586,7.731,47.652,8.637L47.652,8.637L47.652,8.637z M45.162,14.622c0.405-0.458,0.608-1.125,0.608-2.002
										c0-0.878-0.266-1.501-0.794-1.872c-0.528-0.37-1.353-0.556-2.469-0.556h-1.935v5.114h2.282
										C43.988,15.307,44.757,15.079,45.162,14.622L45.162,14.622L45.162,14.622z M61.424,20.791
										c-1.318,1.246-2.866,1.871-4.642,1.871c-1.776,0-3.243-0.55-4.403-1.645c-1.16-1.096-1.739-2.563-1.739-4.406
										c0-1.843,0.592-3.308,1.772-4.396c1.182-1.088,2.576-1.632,4.186-1.632s2.977,0.485,4.101,1.458
										c1.122,0.972,1.685,2.307,1.685,4.004v1.739h-8.522c0.103,0.64,0.436,1.16,1,1.565c0.564,0.406,1.203,0.609,1.913,0.609
										c1.146,0,2.087-0.388,2.826-1.154L61.424,20.791L61.424,20.791z M58.293,13.849c-0.449-0.377-0.997-0.565-1.643-0.565
										s-1.234,0.195-1.771,0.587c-0.536,0.392-0.849,0.921-0.936,1.589h5.132C59.004,14.763,58.743,14.226,58.293,13.849
										L58.293,13.849L58.293,13.849z M74.577,20.791c-1.319,1.246-2.866,1.871-4.644,1.871c-1.773,0-3.242-0.55-4.401-1.645
										c-1.16-1.096-1.739-2.563-1.739-4.406c0-1.843,0.591-3.308,1.771-4.396c1.182-1.088,2.576-1.632,4.187-1.632
										c1.609,0,2.975,0.485,4.099,1.458c1.123,0.972,1.687,2.307,1.687,4.004v1.739h-8.523c0.104,0.64,0.437,1.16,1,1.565
										c0.565,0.406,1.203,0.609,1.913,0.609c1.146,0,2.087-0.388,2.827-1.154L74.577,20.791L74.577,20.791z M71.446,13.849
										c-0.448-0.377-0.996-0.565-1.643-0.565c-0.645,0-1.235,0.195-1.771,0.587c-0.536,0.392-0.85,0.921-0.937,1.589h5.132
										C72.156,14.763,71.895,14.226,71.446,13.849L71.446,13.849L71.446,13.849z M83.752,13.654
										c-0.974,0-1.695,0.345-2.176,1.034c-0.479,0.689-0.718,1.6-0.718,2.729v5.07h-3.263V10.781h3.263v1.545
										c0.42-0.479,0.943-0.886,1.574-1.219c0.633-0.334,1.271-0.508,1.926-0.521l0.021,3.067H83.752L83.752,13.654z"/>
									<path id="Combined-Shape_1_" fill="#CF2F41" d="M90.14,13.132v5.245c0,0.449,0.115,0.801,0.349,1.055
										c0.234,0.254,0.509,0.381,0.826,0.381c0.608,0,1.125-0.272,1.545-0.823l1.218,2.282c-1.015,0.931-2.084,1.396-3.207,1.396
										s-2.069-0.368-2.849-1.108c-0.774-0.739-1.164-1.748-1.164-3.021V13.14h-1.369v-2.35h1.369v-3.51h3.282v3.503h2.826v2.35
										L90.14,13.132L90.14,13.132z M105.665,20.791c-1.317,1.246-2.866,1.871-4.645,1.871c-1.774,0-3.242-0.55-4.401-1.645
										c-1.158-1.096-1.738-2.563-1.738-4.406c0-1.843,0.592-3.308,1.771-4.396c1.185-1.088,2.576-1.632,4.188-1.632
										c1.608,0,2.977,0.485,4.1,1.458c1.122,0.972,1.687,2.307,1.687,4.004v1.739h-8.522c0.104,0.64,0.438,1.16,1,1.565
										c0.563,0.406,1.202,0.609,1.913,0.609c1.146,0,2.087-0.388,2.826-1.154L105.665,20.791z M102.533,13.849
										c-0.447-0.377-0.996-0.565-1.646-0.565c-0.645,0-1.232,0.195-1.771,0.587c-0.534,0.392-0.849,0.921-0.938,1.589h5.134
										C103.244,14.763,102.983,14.226,102.533,13.849z M114.297,19.768c1.086,0,2.063-0.545,2.936-1.633l1.937,2.176
										c-1.508,1.566-3.14,2.352-4.894,2.352s-3.235-0.557-4.444-1.664c-1.211-1.109-1.816-2.563-1.816-4.354
										c0-1.792,0.613-3.25,1.838-4.374c1.228-1.125,2.681-1.687,4.359-1.687c0.842,0,1.69,0.174,2.555,0.521
										c0.863,0.349,1.621,0.863,2.271,1.545l-1.695,2.22c-0.377-0.45-0.836-0.799-1.381-1.044
										c-0.543-0.247-1.082-0.37-1.619-0.37c-0.854,0-1.592,0.278-2.207,0.837c-0.614,0.559-0.924,1.335-0.924,2.33
										c0,0.993,0.31,1.767,0.924,2.313C112.746,19.492,113.467,19.768,114.297,19.768z M124.317,16.177v6.311h-3.263V6.343h3.263
										v5.745c0.983-1.001,2.091-1.501,3.313-1.501c1.227,0,2.258,0.435,3.101,1.306c0.84,0.871,1.263,2.031,1.263,3.481v7.116
										h-3.263v-6.397c0-1.799-0.66-2.698-1.979-2.698c-0.652,0-1.225,0.236-1.707,0.707
										C124.558,14.571,124.317,15.263,124.317,16.177z M134.447,13.479v-2.697h9.438v2.546l-5.674,6.44h6v2.72h-10.178v-2.696
										l5.521-6.313H134.447z"/>
									<g id="Group-2_1_">
										
											<linearGradient id="Rectangle-2_2_" gradientUnits="userSpaceOnUse" x1="-1561.1575" y1="383.5569" x2="-1560.6494" y2="382.5916" gradientTransform="matrix(20.6227 11.4313 11.3284 -20.437 27868.6582 25688.707)">
											<stop  offset="0" style="stop-color:#C5C5C5"/>
											<stop  offset="1" style="stop-color:#838383"/>
										</linearGradient>
										<path id="Rectangle-2_1_" opacity="0.4" fill="url(#Rectangle-2_2_)" enable-background="new    " d="M11.088,7.564
											c2.71-5.756,7.741-6.116,11.237-0.806l6.1,9.268c3.497,5.313,1.176,9.684-5.181,9.766l-9.354,0.121
											c-6.355,0.082-9.313-4.52-6.604-10.273L11.088,7.564L11.088,7.564z"/>
										<g id="Group_2_" transform="translate(4.318154, 2.174126)">
											<g id="Mask_1_">
												
													<linearGradient id="path-3_4_" gradientUnits="userSpaceOnUse" x1="-1608.2695" y1="343.9853" x2="-1607.8684" y2="343.0194" gradientTransform="matrix(24.2019 0 0 -24.1655 38932.9023 8314.334)">
													<stop  offset="0" style="stop-color:#F5515F"/>
													<stop  offset="1" style="stop-color:#9F031B"/>
												</linearGradient>
												<path id="path-3_3_" fill="url(#path-3_4_)" d="M3.298,8.471C2.88,2.122,7.101-0.623,12.726,2.339l10.466,5.514
													c5.625,2.962,5.717,7.932,0.202,11.1l-8.714,5.006C9.166,27.126,4.357,24.548,3.939,18.2L3.298,8.471L3.298,8.471z"/>
											</g>
											<g id="Clipped_1_">
												<g id="path-3_2_">
												</g>
												<defs>
													
														<filter id="Adobe_OpacityMaskFilter_1_" filterUnits="userSpaceOnUse" x="4.575" y="8.253" width="14.748" height="19.443">
														<feColorMatrix  type="matrix" values="1 0 0 0 0  0 1 0 0 0  0 0 1 0 0  0 0 0 1 0"/>
													</filter>
												</defs>
												<mask maskUnits="userSpaceOnUse" x="4.575" y="8.253" width="14.748" height="19.443" id="mask-5_1_">
													<g filter="url(#Adobe_OpacityMaskFilter_1_)">
														<path id="path-4_1_" fill="#FFFFFF" d="M3.298,8.471C2.88,2.122,7.101-0.623,12.726,2.339l10.466,5.514
															c5.625,2.962,5.717,7.932,0.202,11.1l-8.714,5.006C9.166,27.126,4.357,24.548,3.939,18.2L3.298,8.471L3.298,8.471z"/>
													</g>
												</mask>
												<g id="Group_3_" mask="url(#mask-5_1_)">
													<g transform="translate(0.612286, 6.968889)">
														
															<g transform="translate(8.804397, 10.283716) rotate(13.000000) translate(-8.804397, -10.283716) translate(2.304397, 1.283716)">
															<polygon id="Fill-1689_1_" fill="#FFFFFF" points="15.043,4.158 12.466,1.231 12.466,4.157 															"/>
															<path id="Fill-1691_1_" fill="#FFFFFF" d="M6.755,12.805l5.711,0c0.263-0.002,0.477,0.242,0.477,0.541
																c-0.001,0.301-0.213,0.539-0.476,0.541l-5.71,0.001c-0.263,0.003-0.476-0.242-0.475-0.54
																C6.279,13.046,6.492,12.804,6.755,12.805L6.755,12.805L6.755,12.805z M6.755,10.103l5.711,0
																c0.263-0.001,0.475,0.24,0.476,0.539c0,0.3-0.213,0.538-0.476,0.541l-5.711,0c-0.264,0.003-0.478-0.242-0.476-0.539
																C6.278,10.344,6.492,10.102,6.755,10.103L6.755,10.103L6.755,10.103z M6.754,7.4l5.711-0.003
																c0.263-0.002,0.476,0.241,0.476,0.542c0,0.3-0.213,0.54-0.476,0.541l-5.712,0c-0.262,0-0.476-0.243-0.476-0.539
																C6.28,7.641,6.492,7.399,6.754,7.4L6.754,7.4L6.754,7.4z M6.755,4.697l1.901,0.001c0.266,0,0.478,0.242,0.478,0.54
																c0,0.299-0.213,0.54-0.476,0.541L6.755,5.778C6.491,5.779,6.28,5.537,6.278,5.238
																C6.279,4.939,6.491,4.698,6.755,4.697L6.755,4.697L6.755,4.697z M3.424,17.128c0,0.299,0.213,0.539,0.476,0.542
																l11.423,0.001c0.262-0.001,0.475-0.242,0.475-0.543l0-11.89l-3.807-0.001c-0.263,0.002-0.477-0.241-0.476-0.539
																l0-4.324l-7.615,0c-0.263,0.001-0.476,0.242-0.476,0.54L3.424,17.128L3.424,17.128z"/>
														</g>
													</g>
												</g>
											</g>
										</g>
									</g>
								</g>
							</g>
						</g>
					</g>
				</g>
			</g>
		</g>
		<g>
			<path fill="#393939" d="M145.034,2.151c0.687,0,1.345,0.17,1.974,0.51s1.123,0.826,1.482,1.461
				c0.356,0.635,0.538,1.299,0.538,1.99c0,0.69-0.176,1.349-0.526,1.975c-0.354,0.626-0.848,1.113-1.479,1.464
				c-0.632,0.35-1.294,0.524-1.989,0.524c-0.694,0-1.356-0.176-1.987-0.524c-0.633-0.351-1.123-0.838-1.479-1.464
				c-0.354-0.626-0.528-1.283-0.528-1.975s0.181-1.355,0.54-1.99c0.358-0.635,0.854-1.121,1.482-1.461
				C143.693,2.321,144.349,2.151,145.034,2.151z M145.04,2.927c-0.55,0-1.075,0.137-1.579,0.409c-0.506,0.271-0.9,0.663-1.191,1.174
				c-0.29,0.51-0.436,1.045-0.436,1.603c0,0.557,0.141,1.086,0.426,1.589c0.283,0.504,0.679,0.896,1.187,1.18
				c0.509,0.282,1.039,0.424,1.598,0.424s1.092-0.142,1.598-0.424c0.508-0.283,0.902-0.676,1.188-1.18
				c0.283-0.503,0.429-1.032,0.429-1.589c0-0.558-0.146-1.093-0.438-1.603c-0.29-0.511-0.688-0.901-1.191-1.174
				C146.119,3.062,145.59,2.927,145.04,2.927z M143.231,8.233V4.028h0.858c0.809,0,1.26,0.005,1.354,0.012
				c0.285,0.023,0.508,0.08,0.665,0.168s0.291,0.223,0.396,0.402c0.105,0.182,0.16,0.383,0.16,0.604
				c0,0.304-0.102,0.563-0.302,0.778c-0.198,0.216-0.479,0.35-0.843,0.399c0.129,0.049,0.229,0.103,0.298,0.158
				c0.068,0.057,0.165,0.165,0.287,0.323c0.031,0.041,0.136,0.212,0.313,0.512l0.502,0.849h-1.063l-0.354-0.683
				c-0.24-0.459-0.438-0.748-0.596-0.866c-0.156-0.119-0.354-0.179-0.596-0.179h-0.224v1.728H143.231z M144.092,5.843h0.351
				c0.497,0,0.807-0.019,0.927-0.057c0.118-0.038,0.214-0.104,0.283-0.199c0.068-0.095,0.104-0.202,0.104-0.323
				c0-0.117-0.033-0.222-0.104-0.313c-0.066-0.092-0.163-0.156-0.288-0.196c-0.125-0.039-0.434-0.061-0.924-0.061h-0.35V5.843
				L144.092,5.843z"/>
		</g>
	</g>
</g>
</svg>
