<?xml version="1.0" encoding="utf-8"?>
<!-- Generator: Adobe Illustrator 14.0.0, SVG Export Plug-In . SVG Version: 6.00 Build 43363)  -->
<!DOCTYPE svg PUBLIC "-//W3C//DTD SVG 1.1//EN" "http://www.w3.org/Graphics/SVG/1.1/DTD/svg11.dtd">
<svg version="1.1" id="Layer_1" xmlns="http://www.w3.org/2000/svg" xmlns:xlink="http://www.w3.org/1999/xlink" x="0px" y="0px"
	 width="46px" height="47px" viewBox="0 0 46 47" enable-background="new 0 0 46 47" xml:space="preserve">
<g id="Website">
	<g id="Homepage" transform="translate(-112.000000, -1035.000000)">
		<g id="clinical-icon" transform="translate(113.000000, 1036.900000)">
			<path id="Stroke-2963" fill="none" stroke="#393939" stroke-width="2" stroke-linecap="round" stroke-linejoin="round" d="
				M13.694,30v2c0,6.627,5.373,12,12,12l0,0c6.627,0,12-5.373,12-12l0,0"/>
			<path id="Stroke-2965" fill="none" stroke="#3575B9" stroke-width="2" stroke-linecap="round" stroke-linejoin="round" d="
				M31.694,26c0-3.314,2.687-6,6-6s6,2.686,6,6c0,3.313-2.687,6-6,6S31.694,29.314,31.694,26L31.694,26z"/>
			<path id="Stroke-3145" fill="none" stroke="#393939" stroke-width="2" stroke-linecap="round" stroke-linejoin="round" d="
				M19.694,2h5.694c1.217,0,2.152,1.078,1.98,2.283l-3.184,22.283c-0.282,1.97-1.97,3.435-3.96,3.435H7.164
				c-1.99,0-3.678-1.465-3.96-3.435L0.021,4.283C-0.151,3.078,0.784,2,2,2h5.694"/>
			<path id="Stroke-3146" fill="none" stroke="#393939" stroke-width="2" stroke-linecap="round" stroke-linejoin="round" d="
				M7.694,0v4"/>
			<path id="Stroke-3147" fill="none" stroke="#393939" stroke-width="2" stroke-linecap="round" stroke-linejoin="round" d="
				M19.694,0v4"/>
		</g>
	</g>
</g>
</svg>
