<?xml version="1.0" encoding="utf-8"?>
<!-- Generator: Adobe Illustrator 14.0.0, SVG Export Plug-In . SVG Version: 6.00 Build 43363)  -->
<!DOCTYPE svg PUBLIC "-//W3C//DTD SVG 1.1//EN" "http://www.w3.org/Graphics/SVG/1.1/DTD/svg11.dtd">
<svg version="1.1" id="Layer_1" xmlns="http://www.w3.org/2000/svg" xmlns:xlink="http://www.w3.org/1999/xlink" x="0px" y="0px"
	 width="41px" height="47px" viewBox="0 0 41 47" enable-background="new 0 0 41 47" xml:space="preserve">
<title>engineering-icon</title>
<desc>Created with Sketch.</desc>
<g id="Website">
	<g id="Homepage" transform="translate(-280.000000, -1149.000000)">
		<g id="engineering-icon" transform="translate(281.000000, 1150.900000)">
			<path id="Stroke-3172" fill="none" stroke="#3575B9" stroke-width="2" stroke-linecap="round" stroke-linejoin="round" d="
				M17.472,22c0-1.105,0.895-2,2-2s2,0.895,2,2s-0.896,2-2,2S17.472,23.105,17.472,22L17.472,22z"/>
			<path id="Stroke-3177" fill="none" stroke="#393939" stroke-width="2" stroke-linecap="round" stroke-linejoin="round" d="
				M27.473,22c0,12.15-3.582,22-8,22c-4.418,0-8-9.851-8-22s3.582-22,8-22C23.891,0,27.473,9.85,27.473,22L27.473,22z"/>
			<path id="Stroke-3178" fill="none" stroke="#393939" stroke-width="2" stroke-linecap="round" stroke-linejoin="round" d="
				M23.473,15.072C33.994,21.147,40.734,29.174,38.525,33c-2.21,3.826-12.531,2.004-23.053-4.072C4.95,22.853-1.79,14.827,0.419,11
				C2.629,7.174,12.95,8.997,23.473,15.072L23.473,15.072z"/>
			<path id="Stroke-3179" fill="none" stroke="#393939" stroke-width="2" stroke-linecap="round" stroke-linejoin="round" d="
				M23.473,28.928C33.994,22.854,40.734,14.826,38.525,11c-2.21-3.827-12.531-2.004-23.053,4.072C4.95,21.147-1.79,29.173,0.419,33
				C2.629,36.827,12.95,35.003,23.473,28.928L23.473,28.928z"/>
		</g>
	</g>
</g>
</svg>
