<?xml version="1.0" encoding="UTF-8" standalone="no"?>
<svg width="20px" height="26px" viewBox="0 0 20 26" version="1.1" xmlns="http://www.w3.org/2000/svg" xmlns:xlink="http://www.w3.org/1999/xlink">
    <!-- Generator: Sketch 39.1 (31720) - http://www.bohemiancoding.com/sketch -->
    <title>page-icon</title>
    <desc>Created with Sketch.</desc>
    <defs></defs>
    <g id="Page-1" stroke="none" stroke-width="1" fill="none" fill-rule="evenodd">
        <g id="Article_ListItem" transform="translate(0.000000, -11.000000)" fill="#314e6b">
            <g id="page-icon" transform="translate(0.000000, 11.000000)">
                <path d="M18.6430063,5.77961374 L14.5377489,1.43217441 L14.5377489,5.77961374 L18.6430063,5.77961374 Z M0.130600618,25.0516019 C0.130600618,25.4948577 0.469545954,25.8546014 0.88886759,25.8546014 L19.0872749,25.8546014 C19.5065965,25.8546014 19.8455419,25.4948577 19.8455419,25.0516019 L19.8455419,7.38561276 L13.7794061,7.38561276 C13.3600845,7.38561276 13.0211391,7.02586898 13.0211391,6.58261325 L13.0211391,0.158617187 L0.88886759,0.158617187 C0.469545954,0.158617187 0.130600618,0.518360966 0.130600618,0.961616695 L0.130600618,25.0516019 Z M5.43846942,18.6276059 L14.5376731,18.6276059 C14.9569947,18.6276059 15.29594,18.9873497 15.29594,19.4306054 C15.29594,19.8738611 14.9569947,20.2336049 14.5376731,20.2336049 L5.43846942,20.2336049 C5.01914778,20.2336049 4.68020245,19.8738611 4.68020245,19.4306054 C4.68020245,18.9873497 5.01914778,18.6276059 5.43846942,18.6276059 Z M5.43846942,14.6126083 L14.5376731,14.6126083 C14.9569947,14.6126083 15.29594,14.9723521 15.29594,15.4156078 C15.29594,15.8588636 14.9569947,16.2186073 14.5376731,16.2186073 L5.43846942,16.2186073 C5.01914778,16.2186073 4.68020245,15.8588636 4.68020245,15.4156078 C4.68020245,14.9723521 5.01914778,14.6126083 5.43846942,14.6126083 Z M5.43846942,10.5976108 L14.5376731,10.5976108 C14.9569947,10.5976108 15.29594,10.9573546 15.29594,11.4006103 C15.29594,11.843866 14.9569947,12.2036098 14.5376731,12.2036098 L5.43846942,12.2036098 C5.01914778,12.2036098 4.68020245,11.843866 4.68020245,11.4006103 C4.68020245,10.9573546 5.01914778,10.5976108 5.43846942,10.5976108 Z M5.43846942,6.58261325 L8.4715373,6.58261325 C8.89085894,6.58261325 9.22980427,6.94235703 9.22980427,7.38561276 C9.22980427,7.82886849 8.89085894,8.18861227 8.4715373,8.18861227 L5.43846942,8.18861227 C5.01914778,8.18861227 4.68020245,7.82886849 4.68020245,7.38561276 C4.68020245,6.94235703 5.01914778,6.58261325 5.43846942,6.58261325 Z" id="Combined-Shape"></path>
            </g>
        </g>
    </g>
</svg>